<svg width="295" height="53" viewBox="0 0 295 53" fill="none" xmlns="http://www.w3.org/2000/svg">
<path d="M13.938 5.724C14.8107 5.21066 16.1197 4.723 17.865 4.261C19.6617 3.799 21.4583 3.568 23.255 3.568C25.8217 3.568 28.0803 3.953 30.031 4.723C32.033 5.44167 33.3163 6.59666 33.881 8.188C34.805 10.8573 35.806 13.963 36.884 17.505C37.962 21.047 39.04 24.7173 40.118 28.516C41.196 32.2633 42.2483 35.985 43.275 39.681C44.3017 43.3257 45.2 46.5597 45.97 49.383C45.354 50.1017 44.43 50.6663 43.198 51.077C41.966 51.539 40.503 51.77 38.809 51.77C37.577 51.77 36.5247 51.6673 35.652 51.462C34.8307 51.2567 34.1377 50.9487 33.573 50.538C33.0597 50.1273 32.6233 49.5883 32.264 48.921C31.956 48.2537 31.6737 47.4837 31.417 46.611L30.031 41.298H16.094C15.6833 42.838 15.2727 44.4293 14.862 46.072C14.4513 47.7147 14.0407 49.306 13.63 50.846C12.9113 51.1027 12.1413 51.308 11.32 51.462C10.55 51.6673 9.60033 51.77 8.471 51.77C5.853 51.77 3.90233 51.3337 2.619 50.461C1.387 49.537 0.771 48.2793 0.771 46.688C0.771 45.9693 0.873667 45.2507 1.079 44.532C1.28433 43.8133 1.51533 42.9663 1.772 41.991C2.13133 40.605 2.619 38.8853 3.235 36.832C3.90233 34.7787 4.621 32.5713 5.391 30.21C6.161 27.7973 6.98233 25.3333 7.855 22.818C8.72767 20.3027 9.549 17.9413 10.319 15.734C11.089 13.4753 11.782 11.4733 12.398 9.728C13.0653 7.98266 13.5787 6.648 13.938 5.724ZM23.178 15.657C22.4593 17.813 21.638 20.2257 20.714 22.895C19.8413 25.513 19.0457 28.1823 18.327 30.903H27.875C27.1563 28.131 26.412 25.436 25.642 22.818C24.9233 20.1487 24.256 17.7617 23.64 15.657H23.178ZM64.6004 50.923C64.0357 51.0257 63.1887 51.154 62.0594 51.308C60.9814 51.5133 59.8777 51.616 58.7484 51.616C57.6191 51.616 56.5924 51.539 55.6684 51.385C54.7957 51.231 54.0514 50.923 53.4354 50.461C52.8194 49.999 52.3317 49.383 51.9724 48.613C51.6644 47.7917 51.5104 46.7393 51.5104 45.456V0.795999C52.0751 0.693331 52.8964 0.564998 53.9744 0.411C55.1037 0.205666 56.2331 0.102999 57.3624 0.102999C58.4917 0.102999 59.4927 0.179998 60.3654 0.333996C61.2894 0.487997 62.0594 0.795998 62.6754 1.258C63.2914 1.72 63.7534 2.36166 64.0614 3.183C64.4207 3.953 64.6004 4.97967 64.6004 6.263V50.923ZM85.9504 38.141C85.9504 39.4757 86.3611 40.4253 87.1824 40.99C88.0551 41.5547 89.2614 41.837 90.8014 41.837C91.5714 41.837 92.3671 41.7857 93.1884 41.683C94.0098 41.529 94.7284 41.3493 95.3444 41.144C95.8064 41.7087 96.1914 42.3503 96.4994 43.069C96.8588 43.7363 97.0384 44.5577 97.0384 45.533C97.0384 47.4837 96.2941 49.075 94.8054 50.307C93.3681 51.539 90.8014 52.155 87.1054 52.155C82.5881 52.155 79.0974 51.1283 76.6334 49.075C74.2208 47.0217 73.0144 43.685 73.0144 39.065V6.109C73.5791 5.955 74.3748 5.801 75.4014 5.647C76.4794 5.44166 77.6088 5.339 78.7894 5.339C81.0481 5.339 82.7934 5.74966 84.0254 6.571C85.3088 7.341 85.9504 9.00933 85.9504 11.576V16.504H96.0374C96.3454 17.0687 96.6278 17.7873 96.8844 18.66C97.1924 19.4813 97.3464 20.4053 97.3464 21.432C97.3464 23.2287 96.9358 24.5377 96.1144 25.359C95.3444 26.129 94.2921 26.514 92.9574 26.514H85.9504V38.141ZM124.337 22.741C123.054 22.741 121.822 22.9463 120.641 23.357C119.512 23.7677 118.511 24.3837 117.638 25.205C116.817 25.975 116.15 26.9503 115.636 28.131C115.123 29.3117 114.866 30.6977 114.866 32.289C114.866 35.4717 115.765 37.8587 117.561 39.45C119.409 41.0413 121.642 41.837 124.26 41.837C125.8 41.837 127.135 41.6573 128.264 41.298C129.394 40.9387 130.395 40.5537 131.267 40.143C132.294 40.8617 133.064 41.6573 133.577 42.53C134.091 43.3513 134.347 44.3523 134.347 45.533C134.347 47.6377 133.346 49.2803 131.344 50.461C129.342 51.5903 126.57 52.155 123.028 52.155C119.794 52.155 116.868 51.693 114.25 50.769C111.632 49.7937 109.374 48.459 107.474 46.765C105.626 45.0197 104.189 42.9407 103.162 40.528C102.136 38.1153 101.622 35.446 101.622 32.52C101.622 29.132 102.161 26.1803 103.239 23.665C104.369 21.0983 105.883 18.9937 107.782 17.351C109.682 15.7083 111.863 14.4763 114.327 13.655C116.843 12.8337 119.486 12.423 122.258 12.423C125.954 12.423 128.803 13.0903 130.805 14.425C132.807 15.7597 133.808 17.4793 133.808 19.584C133.808 20.5593 133.577 21.4833 133.115 22.356C132.653 23.1773 132.114 23.896 131.498 24.512C130.626 24.1013 129.573 23.7163 128.341 23.357C127.109 22.9463 125.775 22.741 124.337 22.741ZM178.515 32.289C178.515 35.4717 178.028 38.3207 177.052 40.836C176.077 43.3 174.691 45.379 172.894 47.073C171.149 48.767 169.044 50.0503 166.58 50.923C164.116 51.7957 161.37 52.232 158.341 52.232C155.313 52.232 152.566 51.77 150.102 50.846C147.638 49.922 145.508 48.613 143.711 46.919C141.966 45.1737 140.606 43.069 139.63 40.605C138.655 38.141 138.167 35.369 138.167 32.289C138.167 29.2603 138.655 26.514 139.63 24.05C140.606 21.586 141.966 19.507 143.711 17.813C145.508 16.0677 147.638 14.733 150.102 13.809C152.566 12.885 155.313 12.423 158.341 12.423C161.37 12.423 164.116 12.9107 166.58 13.886C169.044 14.81 171.149 16.1447 172.894 17.89C174.691 19.584 176.077 21.663 177.052 24.127C178.028 26.591 178.515 29.3117 178.515 32.289ZM151.565 32.289C151.565 35.4203 152.156 37.833 153.336 39.527C154.568 41.1697 156.262 41.991 158.418 41.991C160.574 41.991 162.217 41.144 163.346 39.45C164.527 37.756 165.117 35.369 165.117 32.289C165.117 29.209 164.527 26.8477 163.346 25.205C162.166 23.511 160.497 22.664 158.341 22.664C156.185 22.664 154.517 23.511 153.336 25.205C152.156 26.8477 151.565 29.209 151.565 32.289ZM208.949 49.999C208.23 50.5637 207.178 51.0257 205.792 51.385C204.406 51.7443 202.84 51.924 201.095 51.924C199.093 51.924 197.348 51.6673 195.859 51.154C194.422 50.6407 193.421 49.8193 192.856 48.69C192.394 47.8173 191.829 46.611 191.162 45.071C190.546 43.4797 189.879 41.7343 189.16 39.835C188.441 37.8843 187.697 35.8053 186.927 33.598C186.157 31.3907 185.413 29.209 184.694 27.053C184.027 24.897 183.411 22.818 182.846 20.816C182.281 18.814 181.819 17.043 181.46 15.503C182.179 14.7843 183.128 14.1683 184.309 13.655C185.541 13.0903 186.876 12.808 188.313 12.808C190.11 12.808 191.573 13.193 192.702 13.963C193.883 14.6817 194.755 16.0677 195.32 18.121L198.323 29.902C198.888 32.212 199.427 34.3167 199.94 36.216C200.453 38.064 200.838 39.5013 201.095 40.528H201.48C202.455 36.7293 203.482 32.52 204.56 27.9C205.638 23.28 206.613 18.737 207.486 14.271C208.359 13.809 209.334 13.4497 210.412 13.193C211.541 12.9363 212.619 12.808 213.646 12.808C215.443 12.808 216.957 13.193 218.189 13.963C219.421 14.733 220.037 16.0677 220.037 17.967C220.037 18.7883 219.832 19.9947 219.421 21.586C219.062 23.126 218.574 24.897 217.958 26.899C217.393 28.8497 216.7 30.9287 215.879 33.136C215.109 35.3433 214.313 37.4993 213.492 39.604C212.671 41.7087 211.849 43.685 211.028 45.533C210.258 47.3297 209.565 48.8183 208.949 49.999ZM245.296 52.232C242.267 52.232 239.444 51.8213 236.826 51C234.259 50.1273 232.001 48.844 230.05 47.15C228.151 45.456 226.636 43.3257 225.507 40.759C224.429 38.1923 223.89 35.1893 223.89 31.75C223.89 28.362 224.429 25.4617 225.507 23.049C226.636 20.585 228.099 18.583 229.896 17.043C231.693 15.4517 233.746 14.2967 236.056 13.578C238.366 12.808 240.727 12.423 243.14 12.423C245.861 12.423 248.325 12.8337 250.532 13.655C252.791 14.4763 254.716 15.6057 256.307 17.043C257.95 18.4803 259.207 20.2 260.08 22.202C261.004 24.204 261.466 26.3857 261.466 28.747C261.466 30.4923 260.978 31.827 260.003 32.751C259.028 33.675 257.667 34.2653 255.922 34.522L236.903 37.371C237.468 39.065 238.623 40.3483 240.368 41.221C242.113 42.0423 244.115 42.453 246.374 42.453C248.479 42.453 250.455 42.1963 252.303 41.683C254.202 41.1183 255.742 40.4767 256.923 39.758C257.744 40.2713 258.437 40.99 259.002 41.914C259.567 42.838 259.849 43.8133 259.849 44.84C259.849 47.15 258.771 48.8697 256.615 49.999C254.972 50.8717 253.124 51.462 251.071 51.77C249.018 52.078 247.093 52.232 245.296 52.232ZM243.14 21.971C241.908 21.971 240.83 22.1763 239.906 22.587C239.033 22.9977 238.315 23.5367 237.75 24.204C237.185 24.82 236.749 25.5387 236.441 26.36C236.184 27.13 236.03 27.9257 235.979 28.747L249.146 26.591C248.992 25.5643 248.427 24.5377 247.452 23.511C246.477 22.4843 245.039 21.971 243.14 21.971ZM280.857 50.923C280.343 51.077 279.522 51.231 278.393 51.385C277.315 51.539 276.185 51.616 275.005 51.616C273.875 51.616 272.849 51.539 271.925 51.385C271.052 51.231 270.308 50.923 269.692 50.461C269.076 49.999 268.588 49.383 268.229 48.613C267.921 47.7917 267.767 46.7393 267.767 45.456V22.356C267.767 21.1753 267.972 20.1743 268.383 19.353C268.845 18.4803 269.486 17.7103 270.308 17.043C271.129 16.3757 272.13 15.7853 273.311 15.272C274.543 14.7073 275.852 14.2197 277.238 13.809C278.624 13.3983 280.061 13.0903 281.55 12.885C283.038 12.6283 284.527 12.5 286.016 12.5C288.48 12.5 290.43 12.9877 291.868 13.963C293.305 14.887 294.024 16.427 294.024 18.583C294.024 19.3017 293.921 20.0203 293.716 20.739C293.51 21.4063 293.254 22.0223 292.946 22.587C291.868 22.587 290.764 22.6383 289.635 22.741C288.505 22.8437 287.402 22.9977 286.324 23.203C285.246 23.4083 284.219 23.6393 283.244 23.896C282.32 24.1013 281.524 24.358 280.857 24.666V50.923Z" fill="#EEF4F6"/>
</svg>
